<svg viewBox="0 0 22.0007 22.0029" xmlns="http://www.w3.org/2000/svg" xmlns:xlink="http://www.w3.org/1999/xlink" width="22.000732" height="22.002930" fill="none" customFrame="#000000">
	<g id="Group 291">
		<g id="Group">
			<path id="Vector" d="M10.9986 4.53345C7.43355 4.53345 4.5332 7.43383 4.5332 10.9988C4.5332 14.5638 7.43355 17.4642 10.9986 17.4642C14.5636 17.4642 17.464 14.5639 17.464 10.9988C17.464 7.43379 14.5636 4.53345 10.9986 4.53345ZM11.4932 13.1783L11.4932 13.8439L10.6478 13.8439L10.6478 13.2083C10.0482 13.1723 9.4666 13.0104 9.10686 12.7885L9.56255 11.7572C9.95825 11.9911 10.4859 12.141 10.9476 12.141C11.3493 12.141 11.4932 12.057 11.4932 11.9131C11.4932 11.3855 9.17282 11.8112 9.17282 10.2463C9.17282 9.56868 9.66447 8.99908 10.6478 8.86119L10.6478 8.20763L11.4932 8.20763L11.4932 8.8492C11.9369 8.89118 12.3687 9.00509 12.7104 9.19699L12.2847 10.2223C11.871 10.0124 11.4813 9.9105 11.1155 9.9105C10.7018 9.9105 10.5699 10.0304 10.5699 10.1743C10.5699 10.678 12.8903 10.2583 12.8903 11.8052C12.8903 12.4528 12.4226 13.0164 11.4932 13.1783Z" fill="rgb(23,31.24,229)" fill-rule="nonzero" />
			<path id="Vector" d="M21.9354 9.80737L20.6531 9.94909C20.8929 12.1182 20.3795 14.3355 19.2074 16.1927C18.019 18.0756 16.1995 19.5028 14.084 20.2114C13.0713 20.5506 12.0309 20.7131 11.0005 20.713C8.02613 20.7128 5.13949 19.3579 3.27407 16.9897L4.55129 16.9897L4.55129 15.6997L1.10205 15.6997L1.10205 19.3078L2.39208 19.3078L2.39208 17.9491C3.6222 19.4469 5.25246 20.6148 7.10341 21.3038C8.35412 21.7694 9.67349 22.0028 10.9912 22.0028C12.1772 22.0028 13.3619 21.8137 14.4937 21.4346C16.8903 20.6319 18.9517 19.0148 20.2982 16.8813C21.6257 14.7779 22.2071 12.2657 21.9354 9.80737Z" fill="rgb(23,31.24,229)" fill-rule="nonzero" />
			<path id="Vector" d="M2.74792 5.89079C3.93615 3.97096 5.77176 2.51799 7.91658 1.7995C10.0053 1.09992 12.2025 1.12213 14.271 1.86396C15.8862 2.44327 17.3263 3.44897 18.4248 4.74827L17.1954 4.74785L17.195 6.03787L20.6825 6.03903L20.6825 2.59225L19.3924 2.59225L19.3924 3.89529C18.1502 2.43373 16.5265 1.30239 14.7065 0.649644C12.3627 -0.190879 9.87305 -0.216274 7.50691 0.576295C5.07712 1.39018 2.99749 3.03646 1.65104 5.21183C0.32213 7.35892 -0.232518 9.91293 0.0892366 12.4034L1.36861 12.2381C1.08471 10.0407 1.57456 7.78655 2.74792 5.89079Z" fill="rgb(23,31.24,229)" fill-rule="nonzero" />
		</g>
	</g>
</svg>
